# xmcd
#
# Track frame offsets:
#	150
#	12552
#	23065
#	34687
#	52042
#	69195
#	85942
#	104067
#	122325
#	152107
#
# Disc length: 2189 seconds
#
# Revision: 2
# Processed by: cddbd v1.5.2PL0 Copyright (c) Steve Scherf et al.
# Submitted via: EZCDAudioConverter 7.1.4.1
#
DISCID=7a088b0a
DTITLE=Various Artist - Raw Blues, Volume 1
DYEAR=1992
DGENRE=Blues
TTITLE0=John Lee Hooker - Crawling King Snake
TTITLE1=Jimmy Reed - Aint That Loving You Baby
TTITLE2=Ray Charles - Ray Charles Blues
TTITLE3=John Lee Hooker - Blues Before Sunrise
TTITLE4=Bo Diddley - Say Boss Man
TTITLE5=Mike Bloomfield - Cherry Red
TTITLE6=Little Walter and Otis Rush - May Be The Last Time
TTITLE7=Lighting Slim - Hoodoo Blues
TTITLE8=Rufus Thomas - Today
TTITLE9=Lightning Hopkins - Shaggy Dog
EXTD=
EXTT0=
EXTT1=
EXTT2=
EXTT3=
EXTT4=
EXTT5=
EXTT6=
EXTT7=
EXTT8=
EXTT9=
PLAYORDER=
